<svg xmlns="http://www.w3.org/2000/svg" version="1.1" xmlns:xlink="http://www.w3.org/1999/xlink" xmlns:svgjs="http://svgjs.dev/svgjs" width="128" height="128" viewBox="0 0 128 128"><g transform="matrix(0.8046875,0,0,0.8046875,12.406165564541098,32.52514480305105)"><svg viewBox="0 0 101 62" data-background-color="#282634" preserveAspectRatio="xMidYMid meet" height="78" width="128" xmlns="http://www.w3.org/2000/svg" xmlns:xlink="http://www.w3.org/1999/xlink"><g id="tight-bounds" transform="matrix(1,0,0,1,0.09201240758591211,0.09091994560453998)"><svg viewBox="0 0 95.481 59.43095959378864" height="59.43095959378864" width="95.481"><g><svg viewBox="0 0 95.481 59.43095959378864" height="59.43095959378864" width="95.481"><g><svg viewBox="0 0 95.481 59.43095959378864" height="59.43095959378864" width="95.481"><g id="textblocktransform"><svg viewBox="0 0 95.481 59.43095959378864" height="59.43095959378864" width="95.481" id="textblock"><g><svg viewBox="0 0 95.481 59.43095959378864" height="59.43095959378864" width="95.481"><g><svg viewBox="0 0 95.481 59.43095959378864" height="59.43095959378864" width="95.481"><g><svg xmlns="http://www.w3.org/2000/svg" xmlns:xlink="http://www.w3.org/1999/xlink" version="1.1" x="0" y="0" viewBox="26.002 112.8399724424379 459.998 286.3200275575621" style="enable-background:new 0 0 512 512;" xml:space="preserve" height="59.43095959378864" width="95.481" class="icon-icon-0" data-fill-palette-color="accent" id="icon-0"><g fill="#dcdcdc" data-fill-palette-color="accent"><g fill="#dcdcdc" data-fill-palette-color="accent"><path d="M353.199 197.046C340.425 184.261 323.365 175.787 304.36 173.925 301.75 173.852 299.117 173.803 296.485 173.803S291.22 173.852 288.61 173.925C269.606 175.787 252.547 184.261 239.772 197.046 225.26 211.545 216.283 231.606 216.283 253.746 216.283 275.888 225.274 295.947 239.772 310.447 252.533 323.232 269.582 331.707 288.561 333.568 291.197 333.642 293.83 333.691 296.486 333.691 299.118 333.691 301.751 333.642 304.372 333.568 323.306 331.707 340.303 323.305 353.053 310.619L353.2 310.447C367.698 295.947 376.689 275.887 376.689 253.746 376.689 231.679 367.771 211.668 353.347 197.169zM328.545 211.718C320.354 203.512 309.015 198.442 296.485 198.442S272.617 203.512 264.412 211.718 251.136 231.263 251.136 243.803C251.136 264.696 270.4 283.848 287.144 300.504 290.386 303.736 293.548 306.871 296.486 309.933 299.413 306.871 302.572 303.737 305.818 300.529 322.558 283.848 341.837 264.696 341.837 243.803 341.836 231.263 336.75 219.923 328.545 211.718M296.485 192.417C310.653 192.417 323.502 198.173 332.795 207.48 342.102 216.762 347.858 229.596 347.858 243.802 347.858 267.167 327.629 287.277 310.044 304.765 306.001 308.781 302.108 312.675 298.68 316.374A3.013 3.013 0 0 1 294.441 316.52L294.258 316.324C290.84 312.651 286.947 308.78 282.919 304.764 265.343 287.276 245.115 267.166 245.115 243.801 245.115 229.619 250.87 216.761 260.153 207.479 269.459 198.173 282.304 192.417 296.485 192.417M130.29 118.057A3.01 3.01 0 0 1 133.305 115.045 3.01 3.01 0 0 1 136.316 118.057V238.513A230.8 230.8 0 0 1 199.445 195.137 230 230 0 0 1 256.758 177.207 86.3 86.3 0 0 0 235.512 192.785C219.908 208.387 210.261 229.939 210.261 253.746 210.261 277.555 219.908 299.107 235.522 314.709A86.4 86.4 0 0 0 256.772 330.286 229.2 229.2 0 0 1 199.434 312.333C169.575 298.471 143.173 278.387 121.888 253.746A216 216 0 0 1 130.289 244.537V118.057zM459.962 265.724V390.342A3.01 3.01 0 0 1 456.95 393.356 3.01 3.01 0 0 1 453.95 390.342V271.577C436.191 288.158 415.826 301.973 393.527 312.333A229 229 0 0 1 336.199 330.286 86 86 0 0 0 357.263 314.881L357.449 314.709C373.049 299.107 382.7 277.555 382.7 253.746 382.7 230.038 373.123 208.558 357.621 192.955L357.449 192.785A86.2 86.2 0 0 0 336.223 177.207 230 230 0 0 1 393.527 195.137C423.396 209.024 449.798 229.108 471.083 253.746A229 229 0 0 1 459.962 265.724M202.691 122.295A11.73 11.73 0 0 0 194.412 118.865 11.73 11.73 0 0 0 186.123 122.269 11.75 11.75 0 0 0 182.694 130.572 11.7 11.7 0 0 0 186.109 138.851 11.7 11.7 0 0 0 194.412 142.28C197.644 142.28 200.571 140.958 202.691 138.851A11.7 11.7 0 0 0 206.12 130.572C206.12 127.413 204.86 124.523 202.838 122.416zM194.412 112.84C199.297 112.84 203.744 114.824 206.952 118.032L207.149 118.254A17.67 17.67 0 0 1 212.147 130.572C212.147 135.471 210.15 139.88 206.953 143.088A17.62 17.62 0 0 1 194.413 148.305 17.67 17.67 0 0 1 181.874 143.114C178.666 139.881 176.68 135.472 176.68 130.573A17.67 17.67 0 0 1 181.874 118.057 17.6 17.6 0 0 1 194.412 112.84M407.828 355.905A11.7 11.7 0 0 0 399.549 352.476 11.7 11.7 0 0 0 391.407 355.758L391.273 355.904C389.154 358.036 387.844 360.95 387.844 364.182 387.844 367.416 389.154 370.355 391.259 372.461A11.67 11.67 0 0 0 399.548 375.891C402.784 375.891 405.722 374.592 407.827 372.461A11.65 11.65 0 0 0 411.256 364.182 11.66 11.66 0 0 0 407.988 356.051zM399.549 346.451C404.448 346.451 408.895 348.46 412.092 351.644L412.289 351.864A17.64 17.64 0 0 1 417.282 364.183 17.68 17.68 0 0 1 412.092 376.724 17.66 17.66 0 0 1 399.549 381.916 17.66 17.66 0 0 1 387.024 376.724C383.817 373.515 381.82 369.081 381.82 364.183 381.82 359.286 383.817 354.852 387.01 351.644L387.231 351.448A17.65 17.65 0 0 1 399.549 346.451M356.432 153.89C357.657 155.016 357.731 156.928 356.614 158.127A3.02 3.02 0 0 1 352.368 158.323L333.862 141.276 333.839 141.252 333.824 141.228 333.716 141.129 333.666 141.08 333.617 141.031H333.606L333.557 140.958 333.532 140.934 333.509 140.91 333.459 140.86 333.435 140.837 333.411 140.812 333.396 140.788 333.288 140.642 333.274 140.618H333.263A3.03 3.03 0 0 1 332.747 138.929C332.747 138.511 332.82 138.119 332.968 137.777H332.982L333.105 137.508 333.25 137.263H333.264V137.239L333.288 137.215 333.299 137.191 333.338 137.141 333.348 137.118H333.362L333.397 137.068 333.436 137.018 333.46 136.995 333.495 136.946 333.545 136.897C333.633 136.798 333.731 136.7 333.825 136.603H333.84L333.899 136.553 352.37 119.531C353.592 118.405 355.49 118.503 356.616 119.703A3.027 3.027 0 0 1 356.434 123.965L343.452 135.917H482.987A3.012 3.012 0 1 1 482.987 141.943H343.449zM159.646 355.611A3.026 3.026 0 0 1 155.396 355.416C154.28 354.216 154.354 352.306 155.568 351.179L168.546 339.227H29.013A3.02 3.02 0 0 1 26.002 336.213 3.02 3.02 0 0 1 29.013 333.201H168.547L155.569 321.248C154.355 320.121 154.281 318.211 155.397 317.012A3.026 3.026 0 0 1 159.647 316.816L178.114 333.838 178.174 333.887 178.188 333.911 178.248 333.961 178.297 334.01 178.357 334.058 178.371 334.082 178.42 334.131 178.469 334.181 178.518 334.231 178.553 334.28 178.578 334.304 178.617 334.352 178.652 334.401 178.666 334.426 178.726 334.499 178.74 334.523 178.751 334.548A2.96 2.96 0 0 1 178.741 337.902L178.727 337.926 178.619 338.073 178.605 338.097 178.581 338.122H178.57L178.556 338.145 178.507 338.194 178.482 338.218 178.447 338.268 178.398 338.317 178.349 338.366 178.3 338.415H178.289L178.191 338.513 178.177 338.538 178.153 338.561zM93.577 385.37A3.027 3.027 0 0 1 90.562 382.358 3.01 3.01 0 0 1 93.577 379.345H320.428C322.08 379.345 323.428 380.691 323.428 382.358 323.428 383.999 322.08 385.37 320.428 385.37zM226.401 399.16A3.02 3.02 0 0 1 223.386 396.146 3.02 3.02 0 0 1 226.401 393.135H383.385A3.012 3.012 0 1 1 383.385 399.16zM399.454 399.16A3.012 3.012 0 1 1 399.454 393.135H419.083A3.02 3.02 0 0 1 422.098 396.146 3.02 3.02 0 0 1 419.083 399.16zM84.635 398.744A3.01 3.01 0 0 1 81.624 395.73 3.01 3.01 0 0 1 84.635 392.717H159.022A3.01 3.01 0 0 1 162.033 395.73 3.01 3.01 0 0 1 159.022 398.744zM296.485 214.265C304.262 214.265 311.302 217.424 316.409 222.52A28.06 28.06 0 0 1 324.678 242.456C324.678 258.01 312.026 270.647 296.486 270.647 288.699 270.647 281.644 267.487 276.538 262.393L276.366 262.197A28.04 28.04 0 0 1 268.284 242.456 28.1 28.1 0 0 1 276.538 222.52C281.644 217.424 288.698 214.265 296.485 214.265" fill-rule="evenodd" clip-rule="evenodd" fill="#dcdcdc" data-fill-palette-color="accent"></path></g></g></svg></g></svg></g></svg></g></svg></g></svg></g><g></g></svg></g><defs></defs></svg><rect width="95.481" height="59.43095959378864" fill="none" stroke="none" visibility="hidden"></rect></g></svg></g></svg>