<svg xmlns="http://www.w3.org/2000/svg" version="1.1" xmlns:xlink="http://www.w3.org/1999/xlink" xmlns:svgjs="http://svgjs.dev/svgjs" width="2000" height="727" viewBox="0 0 2000 727"><g transform="matrix(1,0,0,1,10.629223343291642,-0.33016259521667735)"><svg viewBox="0 0 396 144" data-background-color="#ffffff" preserveAspectRatio="xMidYMid meet" height="727" width="2000" xmlns="http://www.w3.org/2000/svg" xmlns:xlink="http://www.w3.org/1999/xlink"><g id="tight-bounds" transform="matrix(1,0,0,1,0.2400000000000091,0.06539671762200783)"><svg viewBox="0 0 395.52 143.86920656475596" height="143.86920656475596" width="395.52"><g><svg viewBox="0 0 584.3903289142738 212.57021881324167" height="143.86920656475596" width="395.52"><g transform="matrix(1,0,0,1,188.87032891427384,65.68728304809491)"><svg viewBox="0 0 395.52 81.19565271705183" height="81.19565271705183" width="395.52"><g id="textblocktransform"><svg viewBox="0 0 395.52 81.19565271705183" height="81.19565271705183" width="395.52" id="textblock"><g><svg viewBox="0 0 395.52 81.19565271705183" height="81.19565271705183" width="395.52"><g transform="matrix(1,0,0,1,0,0)"><svg width="395.52" viewBox="-0.8 -37.3 240.13000000000002 49.3" height="81.19565271705183" data-palette-color="#336a86"><path d="M16.8-36.8L17.35-36.8 35.05 0 28.6 0 25.45-7.2 8.6-7.2 5.45 0-0.8 0 16.8-36.8ZM17.05-26.15L14.85-21.15 10.85-12.25 23.25-12.25 19.3-21.1 17.15-26.15 17.05-26.15ZM38.8 0L38.8-36.75 44.4-36.75 44.4 0 38.8 0ZM82.24 0.5Q76.79 0.5 72.49-2 68.19-4.5 65.77-8.88 63.34-13.25 63.34-18.7L63.34-18.7Q63.34-24 65.79-28.25 68.24-32.5 72.59-34.9 76.94-37.3 82.39-37.3L82.39-37.3Q85.34-37.3 87.72-36.77 90.09-36.25 91.59-35.58 93.09-34.9 93.64-34.4L93.64-34.4 91.44-29.7Q88.34-32.2 82.29-32.2L82.29-32.2Q78.29-32.2 75.34-30.45 72.39-28.7 70.84-25.7 69.29-22.7 69.29-19L69.29-19Q69.29-14.8 70.97-11.5 72.64-8.2 75.62-6.38 78.59-4.55 82.34-4.55L82.34-4.55Q84.69-4.55 86.84-5.13 88.99-5.7 90.49-6.95L90.49-6.95 90.49-14.05 82.94-14.05 82.94-19.2 96.04-19.2 96.04-4.8Q94.24-2.55 90.62-1.03 86.99 0.5 82.24 0.5L82.24 0.5ZM112.79 0.5Q108.69 0.5 105.94-1.13 103.19-2.75 101.89-5.48 100.59-8.2 100.59-11.45L100.59-11.45Q100.59-15.1 102.12-17.85 103.64-20.6 106.34-22.08 109.04-23.55 112.44-23.55L112.44-23.55Q117.74-23.55 120.32-20.63 122.89-17.7 122.89-12.4L122.89-12.4Q122.89-11.05 122.74-9.6L122.74-9.6 106.24-9.6Q106.79-6.55 108.42-5.2 110.04-3.85 112.94-3.85L112.94-3.85Q115.34-3.85 116.89-4.25 118.44-4.65 119.74-5.35L119.74-5.35 121.39-1.5Q120.14-0.7 117.99-0.1 115.84 0.5 112.79 0.5L112.79 0.5ZM106.24-13.35L117.64-13.35Q117.69-16.45 116.29-17.73 114.89-19 112.29-19L112.29-19Q107.04-19 106.24-13.35L106.24-13.35ZM128.54 0L128.54-22.95 133.84-22.95 133.89-18.75Q134.84-20.85 136.89-22.2 138.94-23.55 141.69-23.55L141.69-23.55Q145.24-23.55 147.14-22.08 149.04-20.6 149.69-17.95 150.34-15.3 150.34-11.05L150.34-11.05 150.34 0 144.94 0 144.94-10.9Q144.94-15.25 144.09-17.18 143.24-19.1 140.59-19.1L140.59-19.1Q139.09-19.1 137.54-18.18 135.99-17.25 134.96-15.5 133.94-13.75 133.94-11.4L133.94-11.4 133.94 0 128.54 0ZM167.44 0.5Q164.34 0.5 161.71-0.98 159.09-2.45 157.51-5.18 155.94-7.9 155.94-11.55L155.94-11.55Q155.94-15.15 157.31-17.85 158.69-20.55 161.24-22.05 163.79-23.55 167.24-23.55L167.24-23.55Q169.24-23.55 170.99-22.85 172.74-22.15 173.94-21.13 175.14-20.1 175.54-19.1L175.54-19.1 175.64-22.95 180.79-22.95 180.79 0 175.69 0 175.59-4.05Q174.74-2.25 172.49-0.88 170.24 0.5 167.44 0.5L167.44 0.5ZM168.34-4Q171.19-4 173.14-5.98 175.09-7.95 175.09-11.15L175.09-11.15 175.09-11.5Q175.09-13.65 174.19-15.35 173.29-17.05 171.74-18 170.19-18.95 168.34-18.95L168.34-18.95Q165.14-18.95 163.39-16.88 161.64-14.8 161.64-11.5L161.64-11.5Q161.64-8.15 163.36-6.08 165.09-4 168.34-4L168.34-4ZM199.18 12Q196.63 12 194.16 11.3 191.68 10.6 190.63 10L190.63 10 191.83 5Q195.13 7.15 199.03 7.15L199.03 7.15Q202.03 7.15 204.08 5.7 206.13 4.25 206.18 0.05L206.18 0.05 206.18-4.05Q205.13-2.1 202.78-0.8 200.43 0.5 197.58 0.5L197.58 0.5Q194.58 0.5 192.08-0.98 189.58-2.45 188.13-5.2 186.68-7.95 186.68-11.6L186.68-11.6Q186.68-15.1 188.06-17.82 189.43-20.55 191.98-22.05 194.53-23.55 197.93-23.55L197.93-23.55Q199.93-23.55 201.68-22.85 203.43-22.15 204.66-21.13 205.88-20.1 206.28-19.1L206.28-19.1 206.38-22.95 211.48-22.95 211.48-0.15Q211.48 5.7 208.48 8.85 205.48 12 199.18 12L199.18 12ZM199.08-4.05Q201.93-4.05 203.88-6.03 205.83-8 205.83-11.2L205.83-11.2 205.83-11.55Q205.83-13.7 204.93-15.4 204.03-17.1 202.48-18.05 200.93-19 199.08-19L199.08-19Q195.88-19 194.13-16.93 192.38-14.85 192.38-11.55L192.38-11.55Q192.38-8.2 194.11-6.13 195.83-4.05 199.08-4.05L199.08-4.05ZM229.23 0.5Q225.13 0.5 222.38-1.13 219.63-2.75 218.33-5.48 217.03-8.2 217.03-11.45L217.03-11.45Q217.03-15.1 218.56-17.85 220.08-20.6 222.78-22.08 225.48-23.55 228.88-23.55L228.88-23.55Q234.18-23.55 236.76-20.63 239.33-17.7 239.33-12.4L239.33-12.4Q239.33-11.05 239.18-9.6L239.18-9.6 222.68-9.6Q223.23-6.55 224.86-5.2 226.48-3.85 229.38-3.85L229.38-3.85Q231.78-3.85 233.33-4.25 234.88-4.65 236.18-5.35L236.18-5.35 237.83-1.5Q236.58-0.7 234.43-0.1 232.28 0.5 229.23 0.5L229.23 0.5ZM222.68-13.35L234.08-13.35Q234.13-16.45 232.73-17.73 231.33-19 228.73-19L228.73-19Q223.48-19 222.68-13.35L222.68-13.35Z" opacity="1" transform="matrix(1,0,0,1,0,0)" fill="#336a86" class="wordmark-text-0" data-fill-palette-color="primary" id="text-0"></path></svg></g></svg></g></svg></g></svg></g><g><svg viewBox="0 0 169.7019840034431 212.57021881324167" height="212.57021881324167" width="169.7019840034431"><g><svg xmlns="http://www.w3.org/2000/svg" xmlns:xlink="http://www.w3.org/1999/xlink" version="1.1" x="0" y="0" viewBox="18.01 9.191 64.107 80.301" enable-background="new 0 0 100 100" xml:space="preserve" height="212.57021881324167" width="169.7019840034431" class="icon-icon-0" data-fill-palette-color="accent" id="icon-0"><g fill="#283132" data-fill-palette-color="accent"><path fill="#283132" d="M75.795 9.191H24.331A6.33 6.33 0 0 0 18.01 15.512V83.17A6.33 6.33 0 0 0 24.331 89.492H75.795A6.33 6.33 0 0 0 82.117 83.17V15.513A6.33 6.33 0 0 0 75.795 9.191M78.346 83.171A2.555 2.555 0 0 1 75.795 85.722H24.331A2.554 2.554 0 0 1 21.78 83.171V15.513A2.554 2.554 0 0 1 24.331 12.962H75.795A2.555 2.555 0 0 1 78.346 15.513z" data-fill-palette-color="accent"></path><rect x="24.331" y="48.785" fill="#283132" width="51.464" height="3.771" data-fill-palette-color="accent"></rect><rect x="24.331" y="56.105" fill="#283132" width="51.464" height="3.771" data-fill-palette-color="accent"></rect><rect x="24.331" y="63.426" fill="#283132" width="51.464" height="3.771" data-fill-palette-color="accent"></rect><rect x="24.331" y="70.745" fill="#283132" width="51.464" height="3.771" data-fill-palette-color="accent"></rect><rect x="24.331" y="78.065" fill="#283132" width="51.464" height="3.771" data-fill-palette-color="accent"></rect><path fill="#283132" d="M40.679 39.072C41.158 39.072 41.503 38.932 41.715 38.652 41.925 38.372 42.181 37.832 42.479 37.032L43.244 34.98H49.746L50.511 36.988C50.613 37.235 50.735 37.521 50.876 37.844 51.018 38.168 51.151 38.408 51.274 38.565 51.399 38.721 51.551 38.844 51.733 38.936S52.133 39.072 52.387 39.072C52.825 39.072 53.198 38.918 53.506 38.608 53.815 38.299 53.969 37.96 53.969 37.588 53.969 37.232 53.807 36.66 53.479 35.874L49.3 25.552C49.104 25.035 48.942 24.622 48.815 24.314A4.6 4.6 0 0 0 48.345 23.446C48.159 23.177 47.915 22.957 47.614 22.786S46.936 22.53 46.485 22.53C46.041 22.53 45.669 22.615 45.366 22.786A2.1 2.1 0 0 0 44.636 23.458C44.45 23.734 44.276 24.081 44.113 24.499L43.692 25.574 39.6 35.963C39.433 36.377 39.312 36.701 39.24 36.934A2.3 2.3 0 0 0 39.131 37.611C39.131 37.99 39.287 38.328 39.601 38.626 39.911 38.923 40.271 39.072 40.679 39.072M46.461 25.945L48.873 32.547H44.093z" data-fill-palette-color="accent"></path><path fill="#283132" d="M58.084 39.072C58.57 39.072 58.965 38.909 59.268 38.581 59.569 38.254 59.721 37.76 59.721 37.098V24.494C59.721 23.832 59.569 23.339 59.268 23.015 58.965 22.692 58.571 22.53 58.084 22.53 57.611 22.53 57.225 22.693 56.928 23.021 56.629 23.348 56.479 23.838 56.479 24.494V37.098C56.479 37.752 56.631 38.245 56.932 38.577 57.234 38.907 57.617 39.072 58.084 39.072" data-fill-palette-color="accent"></path></g></svg></g></svg></g></svg></g><defs></defs></svg><rect width="395.52" height="143.86920656475596" fill="none" stroke="none" visibility="hidden"></rect></g></svg></g></svg>